{"glyphs":{":":{"x_min":0,"x_max":252,"ha":252,"o":""},"$":{"x_min":0,"x_max":444,"ha":444,"o":"m 389 152 q 389 30 254 13 q 254 -68 258 -131 l 201 -131 q 205 -65 204 10 q 125 10 56 26 l 71 98 q 134 73 206 73 q 315 73 315 129 q 315 158 290 178 q 269 194 213 216 q 146 243 116 267 q 67 306 67 363 q 67 413 101 451 q 135 489 205 496 q 205 592 201 646 l 258 646 q 254 590 254 498 q 327 497 372 484 l 356 413 q 303 435 236 435 q 143 435 143 380 q 143 353 162 337 q 182 321 243 297 q 308 272 339 247 q 389 208 389 152 z m 228 -12 z m 230 520 z"},"?":{"x_min":0,"x_max":353,"ha":353,"o":"m 319 500 q 319 394 184 336 l 173 262 l 135 262 l 117 366 q 236 390 236 484 q 236 590 29 590 l 42 652 q 319 652 319 500 z m 213 72 q 213 43 194 21 q 174 -1 140 -1 q 111 -1 95 18 q 80 37 80 63 q 80 92 99 113 q 119 134 153 134 q 182 134 198 116 q 213 98 213 72 z"},"<":{"x_min":0,"x_max":504,"ha":504,"o":"m 452 73 l 412 12 l 52 229 l 52 271 l 412 488 l 452 429 l 135 255 l 135 244 z"},"'":{"x_min":0,"x_max":254,"ha":254,"o":"m 181 616 q 181 511 120 343 l 102 343 q 73 524 73 616 q 73 694 128 694 q 163 694 172 674 q 181 655 181 616 z"},"=":{"x_min":0,"x_max":504,"ha":504,"o":"m 452 315 l 52 315 l 52 377 l 452 377 z m 452 113 l 52 113 l 52 175 l 452 175 z"},"a":{"x_min":0,"x_max":491,"ha":491,"o":"m 431 0 l 354 -3 q 349 21 349 42 l 344 42 q 284 -12 180 -12 q 124 -12 83 21 q 43 54 43 115 q 43 190 106 236 q 170 281 342 284 q 344 295 344 311 q 344 371 312 391 q 280 411 215 411 q 138 411 64 392 l 72 459 q 146 480 241 480 q 328 480 375 444 q 422 408 422 322 q 422 299 420 239 q 418 178 418 158 q 418 69 431 0 z m 345 95 q 342 169 342 228 q 250 228 203 214 q 123 190 123 121 q 123 55 216 55 q 297 55 345 95 z"},"L":{"x_min":0,"x_max":490,"ha":490,"o":"m 479 72 l 476 0 l 92 0 q 98 121 98 334 q 98 518 92 636 l 183 636 q 177 537 177 334 q 177 167 171 66 q 318 66 479 72 z"},"3":{"x_min":0,"x_max":486,"ha":486,"o":"m 427 74 q 427 -25 328 -105 q 229 -184 43 -193 l 29 -133 q 177 -124 260 -74 q 343 -25 343 57 q 343 132 281 163 q 219 194 101 194 l 110 252 q 205 252 265 281 q 326 310 326 360 q 326 408 288 428 q 250 448 169 448 q 109 448 64 438 l 70 506 q 115 520 211 520 q 300 520 348 482 q 396 444 396 392 q 396 284 284 247 l 284 242 q 346 230 386 185 q 427 140 427 74 z"},";":{"x_min":0,"x_max":252,"ha":252,"o":""},"J":{"x_min":0,"x_max":416,"ha":416,"o":"m 334 636 q 331 562 329 471 q 328 381 328 272 q 328 194 314 143 q 301 91 273 56 q 245 21 201 4 q 157 -13 96 -13 q 48 -13 11 -3 l 18 68 q 53 52 90 52 q 132 52 164 64 q 195 76 214 102 q 233 127 241 164 q 249 201 249 261 q 249 483 242 636 z"},"V":{"x_min":0,"x_max":554,"ha":554,"o":"m 548 636 q 548 595 425 318 q 302 42 302 0 l 238 0 q 238 38 122 316 q 5 594 5 636 l 98 636 q 98 598 187 365 q 276 131 276 98 l 281 98 q 281 136 371 364 q 460 591 460 636 z"},"\"":{"x_min":0,"x_max":452,"ha":452,"o":""},"7":{"x_min":0,"x_max":473,"ha":473,"o":"m 429 515 q 429 425 358 266 q 329 200 227 6 q 157 -129 157 -161 l 71 -151 q 71 -120 145 9 q 272 233 280 250 q 354 390 354 447 q 249 447 34 435 l 37 515 z"},"S":{"x_min":0,"x_max":511,"ha":511,"o":"m 463 165 q 463 -16 211 -16 q 120 -16 48 5 l 65 82 q 147 53 221 53 q 387 53 387 147 q 387 194 344 228 q 315 250 231 288 q 142 328 106 361 q 57 407 57 476 q 57 548 107 594 q 164 645 266 645 q 382 645 425 629 l 414 552 q 339 575 256 575 q 130 575 130 491 q 130 451 167 423 q 190 406 270 372 q 361 332 402 296 q 463 243 463 165 z"},"}":{"x_min":0,"x_max":353,"ha":353,"o":"m 338 217 q 220 200 220 141 q 220 119 241 39 q 263 -41 263 -74 q 263 -212 46 -239 l 27 -179 q 183 -160 183 -44 q 183 -19 162 51 q 140 122 140 139 q 140 192 179 220 q 219 248 252 248 l 252 252 q 219 252 180 280 q 140 308 140 362 q 140 382 162 455 q 183 529 183 551 q 183 642 22 680 l 52 743 q 263 699 263 587 q 263 551 243 468 q 224 385 224 362 q 224 302 338 290 z"},"Z":{"x_min":0,"x_max":519,"ha":519,"o":"m 470 82 l 467 0 l 48 0 l 53 59 q 114 145 232 337 q 358 544 358 568 l 358 573 q 251 573 55 561 l 58 636 l 456 636 l 452 575 q 396 497 281 299 q 160 94 160 74 l 160 68 q 261 68 470 82 z"},"x":{"x_min":0,"x_max":504,"ha":504,"o":"m 477 0 l 371 0 q 371 12 324 83 q 277 154 242 202 l 238 202 q 213 167 169 91 q 125 15 125 0 l 27 0 q 27 14 97 107 q 167 201 209 246 l 209 250 q 177 286 113 370 q 48 455 48 464 l 153 464 q 153 452 192 389 q 231 325 258 292 l 262 292 q 286 320 324 386 q 363 451 363 464 l 456 464 q 456 456 389 369 q 323 282 294 253 l 294 248 q 336 200 406 105 q 477 11 477 0 z"},")":{"x_min":0,"x_max":353,"ha":353,"o":"m 318 275 q 318 19 193 -135 q 141 -199 68 -237 l 43 -196 q 100 -152 141 -90 q 237 59 237 275 q 237 461 138 600 q 97 658 39 701 l 74 743 q 145 710 196 652 q 318 514 318 275 z"},"&":{"x_min":0,"x_max":682,"ha":682,"o":"m 669 0 l 563 0 q 563 12 531 60 q 500 106 480 128 l 476 128 q 380 -14 226 -14 q 144 -14 92 31 q 41 76 41 154 q 41 237 78 291 q 115 344 187 373 l 187 376 q 99 444 99 511 q 99 575 147 611 q 195 646 261 646 q 327 646 374 611 q 422 576 422 513 q 422 472 396 437 q 369 399 325 381 l 325 376 q 379 348 488 241 l 491 241 q 513 279 513 372 l 604 372 q 604 353 580 294 q 553 230 529 204 l 529 200 q 565 166 616 95 q 669 21 669 0 z m 446 167 l 446 172 q 410 210 375 242 q 293 317 231 347 q 128 301 128 188 q 128 127 165 91 q 203 55 264 55 q 347 55 446 167 z m 343 493 q 343 539 319 562 q 294 586 260 586 q 229 586 205 567 q 181 547 181 516 q 181 450 280 403 q 343 431 343 493 z"},"_":{"x_min":0,"x_max":504,"ha":504,"o":"m 504 -250 l 0 -250 l 0 -188 l 504 -188 z"},"v":{"x_min":0,"x_max":480,"ha":480,"o":"m 459 464 q 459 440 360 233 q 261 26 261 0 l 196 0 q 196 34 109 239 q 21 444 21 464 l 116 464 q 116 440 180 278 q 243 115 243 92 l 248 92 q 248 114 308 271 q 368 428 368 464 z"},"O":{"x_min":0,"x_max":694,"ha":694,"o":"m 646 328 q 646 170 553 75 q 461 -19 340 -19 q 224 -19 136 68 q 48 154 48 302 q 48 461 141 555 q 233 648 354 648 q 470 648 558 562 q 646 475 646 328 z m 559 316 q 559 442 492 511 q 426 581 340 581 q 260 581 197 508 q 135 435 135 313 q 135 187 201 118 q 268 49 354 49 q 434 49 496 123 q 559 196 559 316 z"},"(":{"x_min":0,"x_max":353,"ha":353,"o":"m 318 -196 l 282 -237 q 210 -204 161 -147 q 39 -9 39 230 q 39 487 163 641 q 215 705 288 743 l 312 701 q 256 657 216 595 q 119 447 119 230 q 119 44 219 -94 q 240 -124 264 -149 q 289 -174 318 -196 z"},"C":{"x_min":0,"x_max":549,"ha":549,"o":"m 522 78 l 516 5 q 456 -13 385 -13 q 217 -13 133 79 q 48 171 48 304 q 48 443 143 544 q 237 645 396 645 q 440 645 489 631 l 475 554 q 419 571 375 571 q 257 571 196 498 q 135 425 135 319 q 135 211 205 134 q 275 57 399 57 q 447 57 522 78 z"},"W":{"x_min":0,"x_max":886,"ha":886,"o":"m 881 636 q 881 600 775 316 q 670 33 670 0 l 606 0 q 606 43 530 249 q 446 472 435 537 l 429 537 q 419 468 345 244 q 275 33 275 0 l 212 0 q 212 50 109 334 q 5 618 5 636 l 98 636 q 98 616 172 383 q 246 150 246 98 l 251 98 q 251 153 327 381 q 402 609 402 636 l 487 636 q 487 604 565 365 q 644 126 644 98 l 649 98 q 649 146 720 368 q 791 591 791 636 z"},"A":{"x_min":0,"x_max":616,"ha":616,"o":"m 611 0 l 508 0 q 508 33 446 206 l 165 206 q 104 35 104 0 l 5 0 q 5 18 131 312 q 257 606 257 636 l 371 636 q 371 607 491 317 q 611 27 611 0 z m 424 270 q 309 556 309 574 l 304 574 q 304 559 185 270 z"},"f":{"x_min":0,"x_max":339,"ha":339,"o":"m 339 693 l 325 628 q 295 636 266 636 q 221 636 205 600 q 189 565 189 454 q 238 454 325 459 l 322 386 q 223 389 189 389 q 189 167 195 0 l 108 0 q 115 163 115 389 q 85 389 11 386 l 14 458 q 82 454 115 454 q 115 583 151 642 q 187 701 266 701 q 301 701 339 693 z"},"Q":{"x_min":0,"x_max":694,"ha":694,"o":"m 663 -212 l 571 -216 q 540 -82 500 -49 q 462 -19 340 -19 q 226 -19 143 61 q 48 152 48 302 q 48 464 147 562 q 235 648 354 648 q 468 648 551 568 q 646 478 646 328 q 646 216 597 133 q 553 58 478 17 l 478 12 q 561 4 597 -39 q 635 -84 663 -212 z m 559 316 q 559 443 487 517 q 425 581 340 581 q 261 581 201 512 q 135 435 135 313 q 135 187 207 113 q 270 49 354 49 q 433 49 492 118 q 559 195 559 316 z"},"w":{"x_min":0,"x_max":766,"ha":766,"o":"m 745 464 q 745 435 661 234 q 577 34 577 0 l 511 0 q 511 19 461 142 q 401 294 375 379 l 372 379 q 348 297 292 142 q 247 19 247 0 l 180 0 q 180 28 101 235 q 21 441 21 464 l 108 464 q 108 438 165 278 q 222 118 222 92 l 228 92 q 228 132 286 285 q 345 438 345 464 l 428 464 q 428 441 489 277 q 550 112 550 92 l 555 92 q 555 122 608 274 q 661 426 661 464 z"},"-":{"x_min":0,"x_max":252,"ha":252,"o":"m 234 284 l 228 221 l 19 214 l 23 276 z"},"E":{"x_min":0,"x_max":521,"ha":521,"o":"m 488 74 l 485 0 l 92 0 q 99 151 99 334 q 99 506 92 636 l 461 636 l 457 563 q 323 569 172 569 q 175 493 175 364 q 305 364 407 370 l 407 297 q 298 302 175 302 q 175 176 180 66 q 342 66 488 74 z"},"s":{"x_min":0,"x_max":419,"ha":419,"o":"m 375 132 q 375 -10 192 -10 q 112 -10 42 6 l 57 78 q 121 53 195 53 q 301 53 301 114 q 301 143 278 160 q 254 178 199 199 q 130 227 99 252 q 53 290 53 343 q 53 398 95 438 q 137 478 223 478 q 307 478 357 464 l 342 394 q 290 415 220 415 q 126 415 126 360 q 126 333 147 316 q 168 299 229 275 q 295 250 327 225 q 375 186 375 132 z"},">":{"x_min":0,"x_max":504,"ha":504,"o":"m 452 229 l 93 12 l 52 73 l 370 245 l 370 256 l 52 429 l 93 488 l 452 271 z"},"l":{"x_min":0,"x_max":229,"ha":229,"o":"m 159 0 l 65 0 q 74 161 74 364 q 74 562 60 687 l 159 692 q 149 559 149 364 q 149 164 159 0 z"},"8":{"x_min":0,"x_max":550,"ha":550,"o":"m 492 181 q 492 90 427 40 q 361 -10 272 -10 q 186 -10 122 38 q 59 86 59 173 q 59 230 95 279 q 131 327 198 355 l 198 360 q 97 422 97 514 q 97 587 151 627 q 205 667 279 667 q 351 667 404 629 q 457 591 457 524 q 457 479 429 438 q 400 396 350 375 l 350 370 q 492 291 492 181 z m 411 167 q 411 259 259 333 q 207 315 173 274 q 139 233 139 186 q 139 123 179 89 q 220 55 277 55 q 331 55 371 85 q 411 115 411 167 z m 379 514 q 379 561 349 586 q 318 611 276 611 q 235 611 205 589 q 175 567 175 529 q 175 450 291 395 q 379 434 379 514 z"},"\\":{"x_min":0,"x_max":267,"ha":267,"o":"m 260 -147 l 182 -147 q 182 -65 95 306 q 8 677 8 710 l 85 710 q 85 618 173 251 q 260 -116 260 -147 z"},"e":{"x_min":0,"x_max":513,"ha":513,"o":"m 465 287 q 465 266 463 230 l 127 224 q 132 153 183 105 q 233 57 316 57 q 390 57 455 75 l 447 6 q 399 -13 309 -13 q 182 -13 115 56 q 48 125 48 225 q 48 332 109 408 q 170 485 272 485 q 367 485 416 430 q 465 374 465 287 z m 383 286 q 383 423 269 423 q 151 423 130 280 z"},"b":{"x_min":0,"x_max":556,"ha":556,"o":"m 507 251 q 507 144 446 65 q 385 -13 279 -13 q 189 -13 157 19 l 153 19 l 141 0 l 69 0 q 76 168 76 364 q 76 541 60 687 l 156 692 q 151 608 151 426 l 155 426 q 203 481 307 481 q 397 481 452 414 q 507 346 507 251 z m 420 239 q 420 313 382 364 q 343 415 275 415 q 188 415 149 361 q 149 188 157 80 q 197 46 260 46 q 340 46 380 103 q 420 159 420 239 z"},"%":{"x_min":0,"x_max":504,"ha":504,"o":"m 276 521 q 276 474 243 438 q 210 403 151 403 q 92 403 59 438 q 26 473 26 521 q 26 568 59 604 q 92 639 151 639 q 210 639 243 604 q 276 569 276 521 z m 478 113 q 478 65 445 30 q 412 -5 353 -5 q 294 -5 261 30 q 228 64 228 112 q 228 160 261 195 q 294 230 353 230 q 412 230 445 195 q 478 161 478 113 z m 469 631 q 469 587 278 322 q 88 56 88 0 l 30 5 q 30 52 221 319 q 411 585 411 636 z m 422 111 q 422 142 404 165 q 385 188 353 188 q 321 188 303 165 q 285 142 285 111 q 285 80 302 58 q 320 35 353 35 q 386 35 404 58 q 422 80 422 111 z m 220 520 q 220 551 202 574 q 184 597 151 597 q 119 597 101 574 q 83 551 83 520 q 83 489 101 466 q 119 444 151 444 q 184 444 202 466 q 220 489 220 520 z"},"m":{"x_min":0,"x_max":819,"ha":819,"o":"m 678 283 q 678 361 651 386 q 624 411 562 411 q 509 411 454 360 q 452 300 452 243 q 452 162 455 0 l 366 0 q 376 139 376 283 q 376 361 349 386 q 322 411 263 411 q 202 411 148 360 q 148 205 150 0 l 62 0 q 71 166 71 240 q 71 353 49 462 l 135 474 l 144 415 l 148 415 q 212 480 290 480 q 405 480 438 415 l 444 415 q 518 480 589 480 q 671 480 713 444 q 755 408 755 316 q 755 307 754 280 q 753 252 753 243 q 753 162 755 0 l 667 0 q 678 128 678 283 z"},"#":{"x_min":0,"x_max":504,"ha":504,"o":"m 487 447 l 487 385 l 394 385 q 383 358 372 327 q 359 294 348 265 l 437 265 l 437 202 l 324 202 q 260 30 253 0 l 189 0 q 197 19 268 202 l 153 202 q 89 30 82 0 l 18 0 q 26 20 97 202 l 17 202 l 17 265 l 121 265 q 128 284 137 306 q 153 348 167 385 l 68 385 l 68 447 l 191 447 q 248 602 251 639 l 314 639 q 310 619 246 447 l 362 447 q 419 603 423 639 l 485 639 q 481 620 417 447 z m 339 385 l 222 385 q 212 357 200 326 q 188 293 177 265 l 292 265 q 300 285 309 307 q 325 348 339 385 z"},",":{"x_min":0,"x_max":252,"ha":252,"o":"m 190 56 q 190 -9 157 -66 q 123 -123 54 -184 l 24 -151 q 99 -68 99 2 q 57 19 57 63 q 57 92 74 113 q 92 134 126 134 q 155 134 173 111 q 190 88 190 56 z m 129 -1 z"},"n":{"x_min":0,"x_max":542,"ha":542,"o":"m 478 0 l 389 0 q 400 128 400 280 q 400 355 369 383 q 339 411 282 411 q 213 411 154 360 q 154 194 156 0 l 67 0 q 76 166 76 240 q 76 354 54 462 l 140 474 l 149 415 l 153 415 q 226 480 308 480 q 389 480 434 444 q 478 408 478 316 q 478 307 477 280 q 476 252 476 243 q 476 162 478 0 z"},"h":{"x_min":0,"x_max":542,"ha":542,"o":"m 478 0 l 389 0 q 400 128 400 276 q 400 355 370 383 q 341 411 289 411 q 215 411 151 360 q 151 94 155 0 l 69 0 q 74 129 74 364 q 74 570 60 687 l 152 692 q 148 543 148 416 l 151 416 q 225 480 312 480 q 390 480 434 444 q 478 407 478 316 q 478 307 477 280 q 476 252 476 232 q 476 162 478 0 z"},"z":{"x_min":0,"x_max":456,"ha":456,"o":"m 407 79 l 404 0 l 48 0 l 52 76 q 78 101 185 230 q 300 371 300 388 l 300 394 q 143 394 51 387 l 54 464 l 393 464 l 388 387 q 348 343 260 232 q 150 94 150 75 l 150 71 q 298 71 407 79 z"},"B":{"x_min":0,"x_max":586,"ha":586,"o":"m 538 194 q 538 99 457 47 q 378 -3 241 -3 q 203 -3 92 0 q 99 151 99 334 q 99 506 92 636 l 150 636 q 167 636 219 637 q 271 639 294 639 q 498 639 498 499 q 498 389 401 353 l 401 348 q 538 324 538 194 z m 455 186 q 455 306 242 306 q 203 306 173 303 q 173 172 179 70 q 197 65 244 65 q 362 65 411 96 q 455 124 455 186 z m 416 474 q 416 575 279 575 q 211 575 168 568 q 172 533 172 369 q 196 368 225 368 q 322 368 366 390 q 416 415 416 474 z"},"K":{"x_min":0,"x_max":592,"ha":592,"o":"m 581 0 l 474 0 q 474 5 418 85 q 354 177 301 237 q 229 319 194 319 l 179 319 q 179 205 184 0 l 92 0 q 99 151 99 334 q 99 506 92 636 l 184 636 q 179 506 179 372 l 190 372 q 217 372 324 497 q 431 621 431 636 l 533 636 q 533 621 428 515 q 324 409 273 372 l 273 367 q 330 346 460 173 q 581 15 581 0 z"},"R":{"x_min":0,"x_max":605,"ha":605,"o":"m 573 0 l 479 0 q 432 140 411 186 q 383 243 349 259 q 321 272 250 272 q 209 272 177 271 q 177 114 183 0 l 92 0 q 99 151 99 334 q 99 506 92 636 l 161 636 q 183 636 216 637 q 250 639 293 639 q 507 639 507 491 q 507 369 387 319 l 387 314 q 441 298 474 239 q 502 190 573 0 z m 424 458 q 424 574 267 574 q 210 574 172 568 q 176 483 176 337 q 205 336 232 336 q 424 336 424 458 z"},"T":{"x_min":0,"x_max":509,"ha":509,"o":"m 499 636 l 496 567 q 399 572 296 572 q 295 478 295 334 q 295 175 300 0 l 211 0 q 217 167 217 334 q 217 476 214 572 q 142 572 11 566 l 13 636 z"},"P":{"x_min":0,"x_max":553,"ha":553,"o":"m 521 478 q 521 367 436 312 q 352 256 209 256 q 191 256 178 257 q 178 151 186 0 l 92 0 q 99 139 99 334 q 99 502 92 636 l 162 636 q 173 636 226 637 q 279 639 316 639 q 410 639 465 596 q 521 553 521 478 z m 439 450 q 439 575 268 575 q 226 575 173 568 q 177 488 177 320 q 194 319 219 319 q 439 319 439 450 z"},"|":{"x_min":0,"x_max":252,"ha":252,"o":"m 168 -252 l 83 -252 q 90 -81 90 230 q 90 536 83 757 l 168 757 q 163 549 163 230 q 163 -89 168 -252 z"},"t":{"x_min":0,"x_max":359,"ha":359,"o":"m 332 67 l 326 4 q 288 -10 253 -10 q 166 -10 133 34 q 101 79 101 194 q 101 269 102 389 q 75 389 21 386 l 24 457 q 71 454 107 454 q 107 483 112 593 l 189 601 q 181 499 181 454 q 229 454 321 459 l 318 386 q 230 389 177 389 q 176 315 176 223 q 176 123 197 90 q 218 58 276 58 q 295 58 332 67 z"},"M":{"x_min":0,"x_max":854,"ha":854,"o":"m 772 0 l 681 0 q 681 109 666 315 q 650 521 649 562 l 645 562 q 596 403 521 218 q 446 32 446 0 l 380 0 q 380 34 310 221 q 240 409 222 472 q 203 536 196 562 l 191 562 q 190 495 172 292 q 154 89 154 0 l 70 0 q 70 5 104 269 q 137 533 137 636 l 265 636 q 265 582 343 367 q 421 152 421 107 l 426 107 q 426 152 514 368 q 602 583 602 636 l 728 636 q 728 533 750 271 q 772 8 772 0 z"},"g":{"x_min":0,"x_max":540,"ha":540,"o":"m 523 525 l 516 458 q 425 458 416 429 l 416 424 q 447 386 447 337 q 447 261 397 211 q 347 162 242 162 q 196 162 168 171 q 145 154 145 129 q 145 98 173 87 q 209 74 324 74 q 509 74 509 -49 q 509 -137 437 -195 q 365 -252 250 -252 q 132 -252 82 -210 q 32 -167 32 -107 q 32 -52 57 -19 q 82 14 118 22 l 118 26 q 80 45 80 98 q 80 146 128 182 l 128 186 q 103 198 79 229 q 56 259 56 304 q 56 381 107 430 q 158 479 255 479 q 335 479 380 450 l 386 450 q 401 533 468 533 q 504 533 523 525 z m 436 -83 q 436 -37 403 -18 q 369 1 277 1 q 214 1 163 7 q 103 -22 103 -78 q 103 -197 259 -197 q 341 -197 388 -165 q 436 -133 436 -83 z m 368 317 q 368 371 334 399 q 300 428 248 428 q 199 428 166 400 q 132 373 132 322 q 132 269 166 241 q 200 213 253 213 q 302 213 335 240 q 368 267 368 317 z"},"j":{"x_min":0,"x_max":218,"ha":218,"o":"m 152 474 q 144 323 144 170 q 144 130 147 63 q 149 -3 149 -27 q 149 -185 29 -219 l 5 -182 q 48 -145 59 -104 q 74 -44 74 150 q 74 359 54 462 z m 173 610 q 173 585 157 567 q 141 549 112 549 q 87 549 73 565 q 59 581 59 603 q 59 627 76 646 q 92 664 122 664 q 146 664 159 648 q 173 632 173 610 z"},"i":{"x_min":0,"x_max":218,"ha":218,"o":"m 153 0 l 64 0 q 71 98 71 223 q 71 364 54 460 l 152 473 q 146 371 146 223 q 146 106 153 0 z m 173 610 q 173 585 157 567 q 141 549 112 549 q 87 549 73 565 q 59 581 59 603 q 59 627 76 646 q 92 664 122 664 q 146 664 159 648 q 173 632 173 610 z"},"y":{"x_min":0,"x_max":465,"ha":465,"o":"m 443 464 q 443 433 370 265 q 285 73 265 -6 q 231 -133 202 -168 q 163 -216 63 -216 l 59 -147 q 120 -147 161 -106 q 201 -64 201 -2 q 201 52 111 256 q 21 459 21 464 l 123 464 q 123 451 184 286 q 246 122 246 83 l 250 83 q 250 115 302 268 q 354 420 354 464 z"},"@":{"x_min":0,"x_max":1009,"ha":1009,"o":"m 947 296 q 947 168 885 77 q 822 -14 719 -14 q 664 -14 628 19 q 592 52 592 109 l 588 109 q 532 -14 431 -14 q 367 -14 333 41 q 299 96 299 178 q 299 293 362 385 q 426 478 537 478 q 606 478 631 434 l 637 434 l 646 464 l 708 474 q 667 239 667 193 q 667 120 684 86 q 702 52 751 52 q 799 52 833 120 q 866 188 866 281 q 866 427 778 536 q 690 645 506 645 q 338 645 241 521 q 143 397 143 233 q 143 73 238 -41 q 332 -154 506 -154 q 583 -154 644 -132 l 654 -217 q 592 -232 504 -232 q 294 -232 179 -94 q 63 44 63 236 q 63 431 181 575 q 298 720 504 720 q 722 720 835 593 q 947 466 947 296 z m 616 379 q 593 408 542 408 q 466 408 422 337 q 377 267 377 183 q 377 128 398 92 q 419 57 458 57 q 513 57 562 145 q 616 242 616 379 z"},".":{"x_min":0,"x_max":252,"ha":252,"o":"m 192 72 q 192 43 173 21 q 153 -1 119 -1 q 90 -1 74 18 q 59 37 59 63 q 59 92 78 113 q 98 134 132 134 q 161 134 177 116 q 192 98 192 72 z"},"p":{"x_min":0,"x_max":556,"ha":556,"o":"m 507 251 q 507 146 447 66 q 387 -13 279 -13 q 189 -13 161 19 l 156 19 q 156 -117 159 -223 l 67 -223 q 79 -93 79 98 q 79 333 54 462 l 140 474 l 147 426 l 152 426 q 200 481 306 481 q 399 481 453 413 q 507 345 507 251 z m 420 239 q 420 312 382 363 q 344 415 275 415 q 188 415 149 361 q 157 197 157 80 q 197 46 260 46 q 341 46 381 103 q 420 160 420 239 z"},"X":{"x_min":0,"x_max":558,"ha":558,"o":"m 553 0 l 447 0 q 447 19 374 141 q 303 258 269 300 l 263 300 q 234 260 172 145 q 108 23 108 0 l 5 0 q 5 15 108 168 q 210 321 235 344 l 235 349 q 209 379 127 499 q 42 623 42 636 l 147 636 q 147 621 206 522 q 264 426 289 396 l 293 396 q 318 427 373 524 q 427 621 427 636 l 530 636 q 530 622 440 504 q 354 391 323 359 l 323 354 q 360 312 455 168 q 553 20 553 0 z"},"*":{"x_min":0,"x_max":504,"ha":504,"o":"m 459 517 q 459 474 376 474 q 332 474 287 478 l 284 468 q 391 380 391 352 q 391 332 369 312 q 348 292 327 292 q 287 292 252 448 l 241 448 q 188 307 152 307 q 132 307 109 324 q 87 341 87 361 q 87 396 212 471 l 209 482 q 154 487 65 502 q 46 509 46 539 q 46 562 58 582 q 69 602 89 602 q 117 602 223 518 l 232 523 q 207 633 207 666 q 207 681 224 691 q 241 700 262 700 q 311 700 311 666 q 311 627 270 521 l 277 514 q 384 582 414 582 q 432 582 446 560 q 459 537 459 517 z"},"Y":{"x_min":0,"x_max":550,"ha":550,"o":"m 540 636 q 540 618 479 530 q 395 407 369 362 q 309 260 309 207 q 309 106 315 0 l 222 0 q 228 101 228 208 q 228 267 172 371 q 140 429 67 539 q 11 624 11 636 l 111 636 q 111 623 195 480 q 279 337 279 292 l 284 292 q 284 338 365 477 q 445 616 445 636 z"},"c":{"x_min":0,"x_max":452,"ha":452,"o":"m 419 75 l 415 9 q 375 -13 309 -13 q 182 -13 115 57 q 48 126 48 225 q 48 330 119 405 q 189 480 305 480 q 363 480 399 468 l 386 392 q 335 411 282 411 q 213 411 172 362 q 131 314 131 241 q 131 162 180 109 q 229 57 318 57 q 354 57 419 75 z"},"!":{"x_min":0,"x_max":252,"ha":252,"o":"m 185 570 q 185 465 144 262 l 108 262 q 83 468 83 564 q 83 647 140 647 q 185 647 185 570 z m 192 72 q 192 43 173 21 q 153 -1 119 -1 q 90 -1 74 18 q 59 37 59 63 q 59 92 78 113 q 98 134 132 134 q 161 134 177 116 q 192 98 192 72 z"},"/":{"x_min":0,"x_max":267,"ha":267,"o":"m 260 710 q 260 677 170 306 q 81 -65 81 -147 l 7 -147 q 7 -116 97 251 q 187 618 187 710 z"},"[":{"x_min":0,"x_max":353,"ha":353,"o":"m 292 -152 l 288 -237 l 58 -232 q 63 102 63 230 q 63 330 58 736 l 292 743 l 288 659 q 180 662 141 662 q 137 324 137 230 q 137 162 141 -162 q 177 -161 292 -152 z"},"6":{"x_min":0,"x_max":552,"ha":552,"o":"m 493 197 q 493 109 436 44 q 378 -21 274 -21 q 185 -21 122 47 q 59 116 59 249 q 59 635 400 656 l 407 599 q 277 586 216 523 q 155 460 144 333 l 149 333 q 196 397 307 397 q 394 397 444 338 q 493 279 493 197 z m 408 183 q 408 246 370 291 q 332 335 257 335 q 188 335 144 278 q 144 153 181 97 q 219 42 276 42 q 338 42 373 84 q 408 125 408 183 z"},"r":{"x_min":0,"x_max":354,"ha":354,"o":"m 359 464 l 337 386 q 299 401 267 401 q 175 401 147 314 q 147 89 150 0 l 64 0 q 72 155 72 240 q 72 356 49 462 l 134 474 q 144 420 144 402 l 147 402 q 200 480 271 480 q 308 480 359 464 z"},"2":{"x_min":0,"x_max":462,"ha":462,"o":"m 413 69 l 403 0 l 49 0 l 59 66 q 185 153 236 211 q 288 270 288 346 q 288 449 150 449 q 91 449 56 441 l 66 510 q 102 520 161 520 q 269 520 321 476 q 374 432 374 369 q 374 275 305 203 q 237 130 139 67 l 139 63 q 277 63 413 69 z"},"{":{"x_min":0,"x_max":353,"ha":353,"o":"m 338 -177 l 308 -239 q 97 -195 97 -83 q 97 -47 116 36 q 136 119 136 141 q 136 202 22 214 l 22 287 q 140 304 140 362 q 140 385 118 465 q 97 544 97 577 q 97 716 314 743 l 333 682 q 177 664 177 548 q 177 522 198 452 q 220 382 220 364 q 220 312 180 283 q 141 255 108 255 l 108 251 q 141 251 180 223 q 220 196 220 141 q 220 122 198 48 q 177 -25 177 -47 q 177 -139 338 -177 z"},"9":{"x_min":0,"x_max":548,"ha":548,"o":"m 490 240 q 490 -177 136 -198 l 122 -140 q 388 -122 404 168 l 399 168 q 350 99 243 99 q 157 99 108 158 q 59 218 59 301 q 59 389 115 454 q 171 520 273 520 q 363 520 427 449 q 490 378 490 240 z m 405 229 q 405 341 363 397 q 322 454 265 454 q 208 454 176 413 q 143 373 143 316 q 143 254 182 208 q 221 161 291 161 q 365 161 405 229 z"}," ":{"x_min":0,"x_max":217,"ha":217,"o":""},"I":{"x_min":0,"x_max":276,"ha":276,"o":"m 185 0 l 92 0 q 99 158 99 334 q 99 507 92 636 l 185 636 q 178 502 178 334 q 178 157 185 0 z"},"H":{"x_min":0,"x_max":652,"ha":652,"o":"m 560 0 l 467 0 q 472 169 472 303 l 180 303 q 180 194 185 0 l 92 0 q 99 178 99 334 q 99 497 92 636 l 185 636 q 179 496 179 364 l 473 364 q 473 470 467 636 l 560 636 q 553 500 553 334 q 553 152 560 0 z"},"4":{"x_min":0,"x_max":533,"ha":533,"o":"m 489 152 l 479 75 l 395 75 q 395 -16 400 -161 l 317 -161 q 321 -35 321 75 l 44 75 l 34 137 q 34 149 167 329 q 299 508 298 515 l 400 515 q 395 405 395 146 q 439 146 489 152 z m 326 446 l 322 446 q 322 433 217 294 q 112 155 112 147 l 112 144 q 198 144 320 147 q 321 298 326 446 z"},"~":{"x_min":0,"x_max":504,"ha":504,"o":"m 502 305 q 430 188 338 188 q 305 188 249 206 q 194 224 163 224 q 105 224 50 152 l 3 178 q 75 306 167 306 q 200 306 262 289 q 324 271 355 271 q 413 271 455 329 z"},"D":{"x_min":0,"x_max":643,"ha":643,"o":"m 594 341 q 594 202 506 98 q 417 -7 261 -7 q 210 -7 92 0 q 99 151 99 334 q 99 506 92 636 l 146 636 q 165 636 205 637 q 245 639 258 639 q 430 639 512 554 q 594 469 594 341 z m 509 319 q 509 427 440 500 q 371 573 227 573 q 206 573 170 568 q 174 454 174 334 q 174 202 180 66 q 219 59 255 59 q 384 59 447 135 q 509 211 509 319 z"},"^":{"x_min":0,"x_max":504,"ha":504,"o":"m 490 333 l 428 292 l 257 607 l 246 607 l 77 292 l 14 333 l 231 692 l 273 692 z"},"0":{"x_min":0,"x_max":549,"ha":549,"o":"m 491 263 q 491 146 433 67 q 375 -12 269 -12 q 167 -12 113 60 q 59 132 59 244 q 59 361 117 440 q 175 520 281 520 q 382 520 437 447 q 491 375 491 263 z m 408 244 q 408 340 372 398 q 335 456 271 455 q 208 455 175 400 q 141 345 141 264 q 141 167 178 109 q 214 51 279 52 q 335 52 372 103 q 408 154 408 244 z"},"F":{"x_min":0,"x_max":489,"ha":489,"o":"m 468 636 l 464 563 q 334 569 169 569 q 175 488 175 345 q 290 345 398 349 l 398 278 q 294 282 175 282 q 175 91 181 0 l 92 0 q 99 151 99 334 q 99 506 92 636 z"},"`":{"x_min":0,"x_max":274,"ha":274,"o":"m 237 530 l 179 530 q 179 538 111 610 q 44 683 44 688 l 149 688 q 149 683 193 611 q 237 538 237 530 z"},"k":{"x_min":0,"x_max":488,"ha":488,"o":"m 483 0 l 368 0 q 368 17 273 130 q 176 247 151 247 l 148 247 q 148 143 153 0 l 67 0 q 74 179 74 364 q 74 553 60 687 l 153 692 q 148 586 148 282 l 151 282 q 167 282 253 365 q 338 447 338 464 l 446 464 q 446 448 369 383 q 297 322 238 282 l 238 278 q 298 232 394 121 q 483 16 483 0 z"},"u":{"x_min":0,"x_max":536,"ha":536,"o":"m 476 0 l 400 -2 q 394 25 394 42 l 389 42 q 324 -12 231 -12 q 146 -12 108 29 q 70 69 70 193 q 70 210 71 245 q 72 280 72 292 q 72 364 63 461 l 154 465 q 148 371 148 304 q 148 150 168 103 q 188 57 257 57 q 335 57 386 96 q 386 367 381 461 l 469 465 q 465 373 465 211 q 465 107 476 0 z"},"]":{"x_min":0,"x_max":353,"ha":353,"o":"m 293 -230 l 58 -237 l 63 -153 q 170 -156 209 -156 q 213 182 213 276 q 213 344 209 667 q 173 667 58 658 l 63 743 l 293 738 q 287 404 287 276 q 287 176 293 -230 z"},"U":{"x_min":0,"x_max":683,"ha":683,"o":"m 602 636 q 600 543 599 463 q 598 383 598 314 q 598 -13 339 -13 q 272 -13 224 6 q 176 25 145 65 q 114 105 99 166 q 85 226 85 309 q 85 381 84 462 q 83 543 81 636 l 174 636 q 168 450 168 344 q 168 259 176 206 q 185 152 206 117 q 227 81 259 66 q 292 51 341 51 q 394 51 426 66 q 459 81 479 115 q 500 150 509 204 q 518 258 518 345 q 518 397 516 469 q 514 541 511 636 z"},"o":{"x_min":0,"x_max":559,"ha":559,"o":"m 510 246 q 510 121 438 51 q 367 -19 270 -19 q 179 -19 114 43 q 48 105 48 218 q 48 344 120 415 q 192 485 290 485 q 380 485 445 423 q 510 360 510 246 z m 426 229 q 426 305 387 365 q 349 424 278 424 q 208 424 170 368 q 132 312 132 237 q 132 161 171 102 q 209 42 280 42 q 351 42 388 99 q 426 155 426 229 z"},"N":{"x_min":0,"x_max":674,"ha":674,"o":"m 582 0 l 514 0 q 514 8 354 234 q 186 471 163 533 l 158 533 q 167 415 167 331 q 167 167 174 0 l 92 0 q 100 159 100 334 q 100 506 92 636 l 186 636 q 186 622 333 413 q 487 193 509 127 l 514 127 q 505 246 505 329 q 505 510 499 636 l 582 636 q 574 506 574 334 q 574 159 582 0 z"},"+":{"x_min":0,"x_max":504,"ha":504,"o":"m 452 214 l 284 214 l 284 35 l 221 35 l 221 214 l 52 214 l 52 276 l 221 276 l 221 455 l 284 455 l 284 276 l 452 276 z"},"G":{"x_min":0,"x_max":621,"ha":621,"o":"m 556 13 q 476 -13 394 -13 q 223 -13 135 78 q 48 170 48 305 q 48 441 143 543 q 238 645 406 645 q 466 645 521 630 l 508 549 q 428 569 378 569 q 260 569 198 497 q 135 426 135 320 q 135 213 207 133 q 279 53 410 53 q 434 53 482 61 q 474 111 474 179 q 474 235 467 290 l 556 290 q 552 225 552 153 q 552 123 556 13 z"},"q":{"x_min":0,"x_max":556,"ha":556,"o":"m 491 -222 l 404 -222 q 409 -88 409 42 l 403 42 q 353 -13 250 -13 q 158 -13 103 55 q 48 123 48 217 q 48 322 108 402 q 167 481 276 481 q 365 481 407 449 l 411 449 l 431 464 l 491 469 q 484 305 484 140 q 484 -57 491 -222 z m 409 107 q 409 268 404 388 q 359 422 295 422 q 215 422 175 365 q 135 309 135 229 q 135 157 173 105 q 211 53 280 53 q 368 53 409 107 z"},"d":{"x_min":0,"x_max":550,"ha":550,"o":"m 485 0 l 413 -2 q 409 19 409 42 l 403 42 q 352 -13 251 -13 q 158 -13 103 54 q 48 122 48 217 q 48 325 109 403 q 170 481 281 481 q 360 481 395 449 l 398 449 q 398 570 392 687 l 484 690 q 475 566 475 365 q 475 161 485 0 z m 407 97 q 407 249 398 389 q 359 422 300 422 q 217 422 176 367 q 135 312 135 229 q 135 155 174 104 q 213 53 282 53 q 368 53 407 97 z"},"1":{"x_min":0,"x_max":350,"ha":350,"o":"m 252 0 l 168 0 q 174 103 174 214 q 174 342 168 403 l 57 348 l 34 390 l 210 520 l 252 520 q 247 362 247 214 q 247 109 252 0 z"},"5":{"x_min":0,"x_max":491,"ha":491,"o":"m 433 85 q 433 -16 334 -94 q 236 -172 72 -178 l 59 -121 q 193 -112 270 -62 q 346 -13 346 63 q 346 145 284 178 q 222 211 62 211 q 89 434 89 515 l 388 515 l 385 438 q 285 451 149 451 q 136 358 136 276 q 287 276 360 231 q 433 185 433 85 z"}}}
